HIERARCHY
ROOT hips
{
	OFFSET -0.003675 0.299928 -0.021708
	CHANNELS 6 Xposition Yposition Zposition Xrotation Yrotation Zrotation
	JOINT LowerBack
	{
		OFFSET 0.000919 0.177588 0.009275
		CHANNELS 3 Xrotation Yrotation Zrotation
		JOINT spine
		{
			OFFSET 0.000919 0.177588 0.009275
			CHANNELS 3 Xrotation Yrotation Zrotation
			JOINT chest
			{
				OFFSET 0.000456 0.100015 0.004638
				CHANNELS 3 Xrotation Yrotation Zrotation
				JOINT neck
				{
					OFFSET 0.000456 0.100015 0.004638
					CHANNELS 3 Xrotation Yrotation Zrotation
					JOINT head
					{
						OFFSET 0.000924 0.155147 0.009274
						CHANNELS 6 Xposition Yposition Zposition Xrotation Yrotation Zrotation
						End Site
						{
							OFFSET 0.000000 0.153400 0.000000
						}
					}
				}
				JOINT shoulder.L
				{
					OFFSET 0.019937 0.078966 0.057518
					CHANNELS 6 Xposition Yposition Zposition Yrotation Xrotation Zrotation
					JOINT upper_arm.L
					{
						OFFSET 0.177024 -0.020465 -0.095062
						CHANNELS 6 Xposition Yposition Zposition Xrotation Yrotation Zrotation
						JOINT forearm.L
						{
							OFFSET 0.247100 -0.135500 -0.061800
							CHANNELS 3 Xrotation Yrotation Zrotation
							JOINT hand.L
							{
								OFFSET 0.217000 -0.143000 0.039300
								CHANNELS 3 Xrotation Yrotation Zrotation
								JOINT palm.01.L
								{
									OFFSET 0.021770 -0.038291 0.012954
									CHANNELS 6 Xposition Yposition Zposition Yrotation Xrotation Zrotation
									JOINT f_index.01.L
									{
										OFFSET 0.053215 -0.044137 0.008236
										CHANNELS 3 Xrotation Yrotation Zrotation
										JOINT f_index.02.L
										{
											OFFSET 0.036108 -0.024723 -0.010656
											CHANNELS 3 Xrotation Yrotation Zrotation
											JOINT f_index.03.L
											{
												OFFSET 0.021342 -0.014948 -0.010846
												CHANNELS 3 Xrotation Yrotation Zrotation
												End Site
												{
													OFFSET 0.015600 -0.009860 -0.013421
												}
											}
										}
									}
									JOINT thumb.01.L
									{
										OFFSET -0.009090 -0.002348 -0.024223
										CHANNELS 6 Xposition Yposition Zposition Xrotation Yrotation Zrotation
										JOINT thumb.02.L
										{
											OFFSET 0.019713 -0.035076 -0.011120
											CHANNELS 3 Xrotation Yrotation Zrotation
											JOINT thumb.03.L
											{
												OFFSET 0.024877 -0.021748 -0.005176
												CHANNELS 3 Xrotation Yrotation Zrotation
												End Site
												{
													OFFSET 0.016125 -0.013029 -0.001569
												}
											}
										}
									}
								}
								JOINT palm.02.L
								{
									OFFSET 0.032823 -0.025104 0.012281
									CHANNELS 6 Xposition Yposition Zposition Yrotation Xrotation Zrotation
									JOINT f_middle.01.L
									{
										OFFSET 0.055723 -0.038469 0.008037
										CHANNELS 3 Xrotation Yrotation Zrotation
										JOINT f_middle.02.L
										{
											OFFSET 0.038167 -0.027473 -0.015582
											CHANNELS 3 Xrotation Yrotation Zrotation
											JOINT f_middle.03.L
											{
												OFFSET 0.021707 -0.016587 -0.017037
												CHANNELS 3 Xrotation Yrotation Zrotation
												End Site
												{
													OFFSET 0.014112 -0.010584 -0.014294
												}
											}
										}
									}
								}
								JOINT palm.03.L
								{
									OFFSET 0.039230 -0.011402 0.008390
									CHANNELS 6 Xposition Yposition Zposition Yrotation Xrotation Zrotation
									JOINT f_ring.01.L
									{
										OFFSET 0.061796 -0.031470 0.007910
										CHANNELS 3 Xrotation Yrotation Zrotation
										JOINT f_ring.02.L
										{
											OFFSET 0.033092 -0.023401 -0.019127
											CHANNELS 3 Xrotation Yrotation Zrotation
											JOINT f_ring.03.L
											{
												OFFSET 0.021392 -0.015362 -0.017824
												CHANNELS 3 Xrotation Yrotation Zrotation
												End Site
												{
													OFFSET 0.008670 -0.007297 -0.014686
												}
											}
										}
									}
								}
								JOINT palm.04.L
								{
									OFFSET 0.043417 0.002450 0.002889
									CHANNELS 6 Xposition Yposition Zposition Yrotation Xrotation Zrotation
									JOINT f_pinky.01.L
									{
										OFFSET 0.069986 -0.026156 0.003627
										CHANNELS 3 Xrotation Yrotation Zrotation
										JOINT f_pinky.02.L
										{
											OFFSET 0.018520 -0.012813 -0.016429
											CHANNELS 3 Xrotation Yrotation Zrotation
											JOINT f_pinky.03.L
											{
												OFFSET 0.013822 -0.009796 -0.014947
												CHANNELS 3 Xrotation Yrotation Zrotation
												End Site
												{
													OFFSET 0.007238 -0.006103 -0.011657
												}
											}
										}
									}
								}
							}
						}
					}
				}
				JOINT shoulder.R
				{
					OFFSET -0.016662 0.078957 0.057696
					CHANNELS 6 Xposition Yposition Zposition Yrotation Xrotation Zrotation
					JOINT upper_arm.R
					{
						OFFSET -0.176972 -0.020537 -0.095144
						CHANNELS 6 Xposition Yposition Zposition Xrotation Yrotation Zrotation
						JOINT forearm.R
						{
							OFFSET -0.247100 -0.135500 -0.061800
							CHANNELS 3 Xrotation Yrotation Zrotation
							JOINT hand.R
							{
								OFFSET -0.217000 -0.143000 0.039300
								CHANNELS 3 Xrotation Yrotation Zrotation
								JOINT palm.01.R
								{
									OFFSET -0.021773 -0.038278 0.012988
									CHANNELS 6 Xposition Yposition Zposition Yrotation Xrotation Zrotation
									JOINT f_index.01.R
									{
										OFFSET -0.053212 -0.044139 0.008249
										CHANNELS 3 Xrotation Yrotation Zrotation
										JOINT f_index.02.R
										{
											OFFSET -0.036049 -0.024835 -0.010634
											CHANNELS 3 Xrotation Yrotation Zrotation
											JOINT f_index.03.R
											{
												OFFSET -0.021371 -0.014881 -0.010866
												CHANNELS 3 Xrotation Yrotation Zrotation
												End Site
												{
													OFFSET -0.015584 -0.009883 -0.013422
												}
											}
										}
									}
									JOINT thumb.01.R
									{
										OFFSET 0.009113 -0.002381 -0.024211
										CHANNELS 6 Xposition Yposition Zposition Xrotation Yrotation Zrotation
										JOINT thumb.02.R
										{
											OFFSET -0.019694 -0.035097 -0.011088
											CHANNELS 3 Xrotation Yrotation Zrotation
											JOINT thumb.03.R
											{
												OFFSET -0.024867 -0.021762 -0.005168
												CHANNELS 3 Xrotation Yrotation Zrotation
												End Site
												{
													OFFSET -0.016120 -0.013036 -0.001565
												}
											}
										}
									}
								}
								JOINT palm.02.R
								{
									OFFSET -0.032828 -0.025095 0.012286
									CHANNELS 6 Xposition Yposition Zposition Yrotation Xrotation Zrotation
									JOINT f_middle.01.R
									{
										OFFSET -0.055721 -0.038472 0.008040
										CHANNELS 3 Xrotation Yrotation Zrotation
										JOINT f_middle.02.R
										{
											OFFSET -0.038101 -0.027593 -0.015557
											CHANNELS 3 Xrotation Yrotation Zrotation
											JOINT f_middle.03.R
											{
												OFFSET -0.021730 -0.016530 -0.017054
												CHANNELS 3 Xrotation Yrotation Zrotation
												End Site
												{
													OFFSET -0.014096 -0.010608 -0.014293
												}
											}
										}
									}
								}
								JOINT palm.03.R
								{
									OFFSET -0.039192 -0.011488 0.008390
									CHANNELS 6 Xposition Yposition Zposition Yrotation Xrotation Zrotation
									JOINT f_ring.01.R
									{
										OFFSET -0.061839 -0.031387 0.007876
										CHANNELS 3 Xrotation Yrotation Zrotation
										JOINT f_ring.02.R
										{
											OFFSET -0.033068 -0.023437 -0.019125
											CHANNELS 3 Xrotation Yrotation Zrotation
											JOINT f_ring.03.R
											{
												OFFSET -0.021371 -0.015393 -0.017822
												CHANNELS 3 Xrotation Yrotation Zrotation
												End Site
												{
													OFFSET -0.008654 -0.007321 -0.014684
												}
											}
										}
									}
								}
								JOINT palm.04.R
								{
									OFFSET -0.043421 0.002443 0.002845
									CHANNELS 6 Xposition Yposition Zposition Yrotation Xrotation Zrotation
									JOINT f_pinky.01.R
									{
										OFFSET -0.069983 -0.026169 0.003599
										CHANNELS 3 Xrotation Yrotation Zrotation
										JOINT f_pinky.02.R
										{
											OFFSET -0.018501 -0.012842 -0.016428
											CHANNELS 3 Xrotation Yrotation Zrotation
											JOINT f_pinky.03.R
											{
												OFFSET -0.013806 -0.009821 -0.014946
												CHANNELS 3 Xrotation Yrotation Zrotation
												End Site
												{
													OFFSET -0.007226 -0.006121 -0.011655
												}
											}
										}
									}
								}
							}
						}
					}
				}
			}
		}
	}
	JOINT pelvis.L
	{
		OFFSET 0.000000 0.000000 0.000000
		CHANNELS 6 Xposition Yposition Zposition Xrotation Yrotation Zrotation
		JOINT thigh.L
		{
			OFFSET 0.101675 0.001054 -0.000000
			CHANNELS 3 Xrotation Yrotation Zrotation
			JOINT shin.L
			{
				OFFSET 0.000000 -0.534800 0.041000
				CHANNELS 3 Xrotation Yrotation Zrotation
				JOINT foot.L
				{
					OFFSET 0.000000 -0.452000 -0.044800
					CHANNELS 3 Xrotation Yrotation Zrotation
					JOINT toe.L
					{
						OFFSET -0.000000 -0.068500 0.109600
						CHANNELS 3 Xrotation Yrotation Zrotation
						End Site
						{
							OFFSET -0.000000 0.000000 0.067200
						}
					}
				}
				JOINT heel.L
				{
					OFFSET 0.000000 -0.452000 -0.044800
					CHANNELS 3 Xrotation Yrotation Zrotation
					JOINT heel.02.L
					{
						OFFSET -0.038000 -0.085200 0.016200
						CHANNELS 6 Xposition Yposition Zposition Xrotation Yrotation Zrotation
						End Site
						{
							OFFSET 0.080000 -0.000000 0.000000
						}
					}
				}
			}
		}
	}
	JOINT pelvis.R
	{
		OFFSET 0.000000 0.000000 0.000000
		CHANNELS 6 Xposition Yposition Zposition Xrotation Yrotation Zrotation
		JOINT thigh.R
		{
			OFFSET -0.094325 0.001054 0.000000
			CHANNELS 3 Xrotation Yrotation Zrotation
			JOINT shin.R
			{
				OFFSET 0.000000 -0.534800 0.041000
				CHANNELS 3 Xrotation Yrotation Zrotation
				JOINT foot.R
				{
					OFFSET 0.000000 -0.452000 -0.044800
					CHANNELS 3 Xrotation Yrotation Zrotation
					JOINT toe.R
					{
						OFFSET -0.000000 -0.068500 0.109600
						CHANNELS 3 Xrotation Yrotation Zrotation
						End Site
						{
							OFFSET -0.000000 0.000000 0.067200
						}
					}
				}
				JOINT heel.R
				{
					OFFSET 0.000000 -0.452000 -0.044800
					CHANNELS 3 Xrotation Yrotation Zrotation
					JOINT heel.02.R
					{
						OFFSET 0.038000 -0.085200 0.016200
						CHANNELS 6 Xposition Yposition Zposition Xrotation Yrotation Zrotation
						End Site
						{
							OFFSET -0.080000 0.000000 -0.000000
						}
					}
				}
			}
		}
	}
}
MOTION
Frames: 4
Frame Time: 0.041667
-0.019660 0.205332 -0.020521 -9.348530 -5.677649 82.416566 -0.000001 0.000000 0.000000 0.000000 0.000001 0.000001 0.000000 -0.000000 -0.000000 0.000000 -0.000001 -0.000001 0.000924 0.155148 0.009274 0.410413 -0.002218 -13.712738 0.019937 0.078966 0.057518 -1.565026 3.172659 45.564995 0.177024 -0.020465 -0.095062 -17.404077 -0.026849 -17.195208 -2.414941 -8.026247 17.229974 -0.000001 0.000002 -0.000006 0.021770 -0.038291 0.012954 0.000001 0.000002 -0.000002 -0.000000 0.000001 0.000003 -0.000000 0.000001 0.000003 -0.000003 0.000003 -0.000001 -0.009090 -0.002348 -0.024224 -0.000001 0.000003 -0.000000 0.000001 -0.000003 0.000003 0.000001 -0.000001 -0.000001 0.032823 -0.025104 0.012281 -0.000002 -0.000000 0.000002 0.000001 -0.000002 -0.000002 -0.000004 -0.000002 0.000001 0.000002 -0.000001 0.000006 0.039230 -0.011402 0.008390 0.000001 -0.000000 0.000004 0.000001 0.000000 -0.000002 -0.000002 0.000004 -0.000006 0.000005 -0.000003 -0.000000 0.043417 0.002450 0.002889 -0.000001 -0.000001 -0.000002 -0.000001 -0.000002 0.000001 0.000007 0.000001 -0.000000 -0.000001 0.000000 -0.000003 -0.016662 0.078956 0.057696 -18.883818 3.850284 -31.261909 -0.176972 -0.020537 -0.095144 -14.031429 -0.858016 15.194468 -0.671335 20.432741 -33.563000 0.000002 -0.000003 0.000005 -0.021773 -0.038278 0.012988 -0.000002 -0.000000 0.000000 -0.000002 0.000002 -0.000001 -0.000003 -0.000000 -0.000003 -0.000002 0.000002 0.000002 0.009113 -0.002381 -0.024211 -0.000000 -0.000000 -0.000003 0.000001 -0.000002 -0.000001 -0.000001 -0.000001 -0.000004 -0.032828 -0.025095 0.012286 -0.000001 -0.000001 0.000001 0.000003 0.000003 -0.000003 0.000001 0.000000 -0.000000 -0.000000 0.000002 -0.000007 -0.039192 -0.011488 0.008390 -0.000002 0.000000 0.000001 0.000001 0.000001 0.000000 0.000001 0.000004 0.000002 -0.000005 -0.000002 -0.000002 -0.043421 0.002443 0.002845 -0.000001 0.000000 -0.000001 -0.000003 0.000001 -0.000002 0.000005 -0.000003 0.000002 0.000000 0.000001 -0.000005 0.000000 0.000000 -0.000000 -2.362970 0.125715 -2.293179 -9.369319 0.265744 4.389478 38.887634 -1.282226 13.053442 0.000002 -0.000001 -0.000000 -0.000001 -0.000000 -0.000000 0.000002 -0.000000 0.000000 -0.038000 -0.085200 0.016200 -0.000000 -0.000001 -0.000000 0.000000 0.000000 -0.000000 -2.307645 0.124076 -1.059118 -44.988749 0.476064 2.808297 37.523649 -0.362221 3.657797 0.000000 -0.000000 -0.000000 -0.000001 -0.000001 0.000001 0.000007 -0.000000 -0.000000 0.038000 -0.085200 0.016200 0.000003 -0.000000 0.000000 
-0.019285 0.205808 -0.019358 -11.200307 -5.272328 83.152915 -0.000000 0.000002 -0.000001 -0.000001 0.000002 -0.000001 0.000000 0.000000 -0.000000 0.000000 0.000000 0.000000 0.000924 0.155148 0.009274 -2.457855 0.005085 -14.540279 0.019937 0.078966 0.057518 -4.075463 3.398102 47.058146 0.177024 -0.020465 -0.095062 -15.875404 2.284568 -19.005999 -3.467094 -10.445748 16.465404 0.000001 -0.000003 0.000000 0.021770 -0.038291 0.012954 -0.000002 -0.000003 -0.000000 0.000004 -0.000004 -0.000001 -0.000002 -0.000001 0.000007 -0.000001 0.000000 0.000003 -0.009090 -0.002348 -0.024224 0.000004 -0.000003 0.000004 -0.000000 -0.000000 0.000001 0.000001 0.000000 -0.000004 0.032823 -0.025104 0.012281 0.000001 0.000000 0.000002 -0.000001 -0.000001 -0.000003 -0.000001 -0.000001 0.000001 -0.000005 0.000001 0.000003 0.039230 -0.011402 0.008390 0.000003 -0.000001 0.000003 0.000002 0.000002 0.000006 -0.000001 0.000000 -0.000001 0.000005 -0.000004 0.000000 0.043417 0.002449 0.002889 0.000001 -0.000002 -0.000003 -0.000002 -0.000005 -0.000000 0.000002 0.000001 0.000001 0.000003 -0.000001 -0.000007 -0.016662 0.078956 0.057696 -20.446212 4.189975 -30.529163 -0.176972 -0.020537 -0.095144 -13.063823 -2.151775 15.996651 -1.935148 22.073187 -31.050747 0.000001 0.000000 -0.000002 -0.021773 -0.038278 0.012988 0.000001 0.000004 -0.000003 0.000001 0.000001 -0.000005 -0.000003 -0.000000 -0.000001 -0.000003 0.000003 0.000002 0.009114 -0.002381 -0.024212 0.000002 -0.000003 -0.000001 0.000001 -0.000000 0.000000 0.000002 -0.000001 -0.000003 -0.032828 -0.025095 0.012286 -0.000001 0.000003 -0.000008 0.000001 0.000000 -0.000004 -0.000001 -0.000002 -0.000004 -0.000003 0.000008 -0.000007 -0.039192 -0.011488 0.008390 -0.000002 0.000003 -0.000000 -0.000002 0.000003 -0.000002 -0.000000 -0.000005 0.000001 -0.000002 -0.000001 0.000001 -0.043421 0.002443 0.002845 -0.000002 0.000005 0.000000 -0.000003 0.000004 -0.000001 0.000001 -0.000005 0.000002 -0.000004 0.000002 0.000003 -0.000000 0.000000 0.000000 -2.345708 0.227908 -3.391324 -4.302022 0.359669 5.290055 33.898229 -1.235623 12.570973 0.000002 -0.000001 0.000000 -0.000006 -0.000000 0.000000 0.000000 -0.000001 -0.000000 -0.038000 -0.085200 0.016200 -0.000001 -0.000000 -0.000000 -0.000000 0.000000 0.000000 -2.286942 0.225037 -2.157366 -43.218985 0.350681 1.300704 34.522740 -0.551051 5.569292 0.000002 0.000000 0.000000 0.000003 -0.000001 -0.000001 0.000005 0.000001 0.000001 0.038000 -0.085200 0.016200 0.000001 0.000001 -0.000000 
-0.019046 0.205345 -0.019069 -11.981251 -4.612016 83.449885 0.000000 0.000000 0.000000 -0.000001 0.000000 -0.000000 -0.000000 -0.000001 -0.000000 0.000000 -0.000001 0.000000 0.000924 0.155148 0.009274 -3.914562 0.009020 -15.026035 0.019937 0.078966 0.057518 -5.447287 3.423782 47.753029 0.177025 -0.020465 -0.095062 -16.486618 2.067951 -19.556119 -2.656157 -8.181810 16.235592 0.000004 0.000001 -0.000001 0.021770 -0.038291 0.012954 -0.000000 0.000001 -0.000001 0.000001 -0.000001 0.000003 -0.000003 0.000001 0.000003 -0.000002 0.000003 -0.000005 -0.009090 -0.002348 -0.024224 0.000002 -0.000001 0.000003 -0.000000 -0.000001 -0.000002 -0.000000 0.000001 -0.000006 0.032823 -0.025104 0.012281 -0.000003 0.000003 0.000007 -0.000000 -0.000001 -0.000004 -0.000007 -0.000003 0.000001 -0.000002 0.000001 0.000001 0.039230 -0.011402 0.008390 -0.000000 -0.000002 0.000004 0.000003 -0.000002 -0.000000 -0.000001 0.000006 0.000008 -0.000002 -0.000001 0.000007 0.043417 0.002450 0.002889 -0.000002 -0.000000 -0.000003 -0.000003 -0.000006 -0.000002 0.000000 0.000001 -0.000001 -0.000002 -0.000003 -0.000000 -0.016662 0.078957 0.057696 -21.368988 4.292434 -30.004765 -0.176972 -0.020537 -0.095144 -14.063780 -1.848733 17.347168 -1.829670 15.853800 -28.590393 0.000001 0.000002 0.000003 -0.021773 -0.038278 0.012988 0.000004 -0.000001 -0.000003 -0.000003 0.000001 0.000001 0.000000 0.000001 -0.000001 -0.000005 0.000002 -0.000003 0.009114 -0.002381 -0.024212 0.000000 -0.000003 0.000000 -0.000001 -0.000003 0.000000 -0.000001 -0.000004 0.000001 -0.032828 -0.025095 0.012286 0.000004 0.000002 -0.000001 0.000000 0.000002 0.000001 0.000001 0.000003 -0.000000 -0.000000 -0.000003 -0.000004 -0.039192 -0.011488 0.008390 0.000004 0.000000 0.000001 -0.000005 0.000000 -0.000002 0.000001 -0.000001 -0.000002 -0.000001 0.000003 0.000003 -0.043421 0.002443 0.002844 0.000000 0.000000 0.000000 -0.000003 0.000004 -0.000002 0.000001 -0.000000 -0.000000 -0.000005 -0.000001 -0.000002 -0.000000 0.000000 -0.000000 -2.354959 0.269889 -3.833922 -1.578488 0.456546 6.385962 33.464023 -1.192447 12.124776 0.000002 -0.000000 -0.000001 -0.000002 -0.000001 -0.000000 0.000000 -0.000001 -0.000001 -0.038000 -0.085200 0.016200 0.000003 -0.000001 -0.000000 -0.000000 0.000000 0.000000 -2.294399 0.266459 -2.600021 -44.540043 0.325884 0.926227 35.767481 -0.492656 4.977598 0.000000 -0.000001 -0.000000 -0.000001 0.000001 0.000000 0.000007 -0.000000 -0.000000 0.038000 -0.085200 0.016200 -0.000003 -0.000001 -0.000000 
-0.012767 0.206587 -0.003051 -15.172787 13.808733 92.462989 -0.000000 -0.000000 0.000000 0.000001 0.000001 0.000000 -0.000001 -0.000002 0.000000 -0.000000 -0.000003 0.000000 0.000924 0.155148 0.009274 -8.459569 0.027303 -12.241268 0.019937 0.078966 0.057518 -7.397769 3.401734 45.076878 0.177024 -0.020465 -0.095062 -16.966806 2.605748 -20.370221 -1.331269 -4.168759 14.706919 -0.000001 -0.000002 -0.000000 0.021770 -0.038291 0.012954 -0.000000 0.000001 0.000001 -0.000000 -0.000000 -0.000000 0.000002 -0.000000 0.000009 -0.000001 0.000002 0.000003 -0.009090 -0.002348 -0.024224 0.000002 -0.000002 -0.000001 0.000001 0.000000 0.000001 0.000000 -0.000001 0.000001 0.032823 -0.025104 0.012281 -0.000001 -0.000001 0.000002 0.000001 0.000003 -0.000007 -0.000004 -0.000003 0.000007 -0.000000 -0.000002 0.000004 0.039230 -0.011402 0.008390 0.000000 -0.000002 0.000003 0.000001 -0.000000 -0.000002 0.000000 0.000006 -0.000000 -0.000001 -0.000005 0.000005 0.043417 0.002450 0.002889 -0.000001 0.000000 -0.000003 0.000003 -0.000005 0.000001 -0.000003 -0.000004 0.000001 -0.000000 0.000000 -0.000002 -0.016662 0.078957 0.057696 -20.891518 5.499066 -33.950316 -0.176972 -0.020537 -0.095144 -12.362691 0.350266 10.658346 0.674121 1.600461 -32.731014 0.000001 0.000003 0.000002 -0.021773 -0.038278 0.012988 0.000000 0.000000 -0.000005 -0.000001 0.000002 -0.000001 -0.000001 -0.000001 -0.000008 -0.000001 -0.000002 0.000003 0.009114 -0.002381 -0.024211 0.000000 0.000000 0.000004 -0.000001 -0.000003 -0.000003 0.000001 -0.000000 0.000001 -0.032828 -0.025095 0.012286 0.000001 -0.000000 -0.000004 0.000002 0.000002 -0.000001 0.000001 0.000004 -0.000002 -0.000000 -0.000001 -0.000006 -0.039192 -0.011488 0.008390 0.000001 0.000002 0.000003 -0.000001 0.000002 -0.000005 0.000001 -0.000003 -0.000004 0.000003 -0.000003 0.000001 -0.043421 0.002443 0.002845 0.000001 0.000001 0.000004 -0.000005 0.000001 0.000001 -0.000001 -0.000002 0.000005 -0.000000 0.000002 0.000003 0.000000 0.000000 0.000000 -2.232204 -0.235374 1.613538 29.030049 0.325410 2.793251 27.990165 -1.391922 14.192768 0.000000 -0.000000 -0.000000 -0.000001 -0.000001 0.000000 0.000003 -0.000000 -0.000000 -0.038000 -0.085200 0.016200 -0.000004 0.000001 -0.000000 0.000000 0.000000 0.000000 -2.192822 -0.233855 2.847895 -15.490138 0.151283 0.459998 27.755353 -0.283347 2.860527 0.000000 0.000001 0.000000 0.000001 0.000002 0.000001 0.000002 0.000001 0.000000 0.038000 -0.085200 0.016200 -0.000001 0.000001 0.000001 
